<?xml version="1.0" encoding="utf-8"?>
<!-- Generator: Adobe Illustrator 25.2.3, SVG Export Plug-In . SVG Version: 6.00 Build 0)  -->
<svg version="1.1" xmlns="http://www.w3.org/2000/svg" xmlns:xlink="http://www.w3.org/1999/xlink" x="0px" y="0px"
	 viewBox="0 0 1134 396" style="enable-background:new 0 0 1134 396;" xml:space="preserve">
<style type="text/css">
	.st0{display:none;}
	.st1{display:inline;stroke:#000000;stroke-miterlimit:10;}
	.st2{fill:#2A2F36;}
	.st3{fill:#21405A;}
	.st4{fill:#5EBFBC;}
	.st5{fill:#172121;}
	.st6{fill:none;}
	.st7{fill:#FDEBE0;}
</style>
<g id="Capa_1" class="st0">
	<path class="st1" d="M959.65,337.32h-88.82c-1.4,0-2.66-0.83-3.23-2.1c-2.41-5.39-4.99-10.69-7.75-15.9
		c-1.56-2.96-3.18-5.89-4.85-8.79c-1.79-3.11-3.65-6.18-5.57-9.21c-3.89-6.17-8.04-12.18-12.41-18c0-0.01-0.01-0.01-0.02-0.02
		c-4.66-6.21-9.58-12.2-14.76-17.98c-1.06-1.2-2.15-2.39-3.24-3.57c-4.63-4.99-9.44-9.8-14.43-14.43c-1.18-1.09-2.37-2.18-3.57-3.24
		c-5.78-5.18-11.77-10.1-17.98-14.76c-0.01-0.01-0.01-0.02-0.02-0.02c-5.82-4.37-11.83-8.52-18-12.41c-3.03-1.92-6.1-3.78-9.21-5.57
		c-2.29-1.32-4.59-2.6-6.92-3.85c-1.15-0.62-1.87-1.81-1.87-3.12v-91.21c0-2.5,2.52-4.2,4.85-3.29c4.43,1.72,8.81,3.54,13.15,5.44
		c4.41,1.93,8.78,3.94,13.09,6.04c1.64,0.8,3.28,1.61,4.91,2.43c6.1,3.07,12.1,6.32,18,9.74c3.28,1.89,6.52,3.83,9.72,5.83
		c2.79,1.73,5.55,3.49,8.28,5.3c6.13,4.04,12.13,8.27,18,12.68v0.02h0.02c6.15,4.62,12.15,9.43,17.98,14.42
		c1.38,1.18,2.76,2.37,4.12,3.58c4.74,4.18,9.37,8.49,13.88,12.91c1.71,1.68,3.41,3.38,5.09,5.09c4.42,4.51,8.73,9.14,12.91,13.88
		c1.21,1.36,2.4,2.74,3.58,4.12c4.99,5.83,9.8,11.83,14.42,17.98v0.02h0.02c4.41,5.87,8.64,11.87,12.68,18
		c1.81,2.73,3.57,5.49,5.3,8.28c2,3.2,3.94,6.44,5.83,9.72c3.42,5.9,6.67,11.9,9.74,18c0.82,1.63,1.63,3.27,2.43,4.91
		c2.1,4.31,4.11,8.68,6.04,13.09c2.59,5.92,5.02,11.92,7.28,18c1.65,4.4,3.21,8.83,4.68,13.31c0.01,0.02,0.01,0.03,0.02,0.05
		C963.78,334.96,962.06,337.32,959.65,337.32z"/>
	<path class="st1" d="M603,87.22v78.52c0,3.04-2.33,5.57-5.36,5.83c-4.24,0.36-8.46,0.82-12.64,1.38c-6.07,0.81-12.07,1.82-18,3.03
		c-6.07,1.22-12.08,2.66-18,4.3c-6.09,1.68-12.09,3.56-18,5.66c-2.39,0.84-4.76,1.71-7.12,2.63c-3.67,1.41-7.29,2.9-10.88,4.47
		c-6.12,2.67-12.12,5.56-18,8.68c-2.96,1.56-5.89,3.18-8.79,4.85c-3.11,1.79-6.18,3.65-9.21,5.57c-6.17,3.89-12.18,8.04-18,12.41
		c-0.01,0-0.01,0.01-0.02,0.02c-6.21,4.66-12.2,9.58-17.98,14.76c-1.2,1.06-2.39,2.15-3.57,3.24c-4.99,4.63-9.8,9.44-14.43,14.43
		c-1.09,1.18-2.18,2.37-3.24,3.57c-5.18,5.78-10.1,11.77-14.76,17.98c-0.01,0.01-0.02,0.01-0.02,0.02
		c-4.37,5.82-8.52,11.83-12.41,18c-1.92,3.03-3.78,6.1-5.57,9.21c-1.67,2.9-3.29,5.83-4.85,8.79c-3.12,5.88-6.01,11.88-8.68,18
		c-1.57,3.59-3.06,7.21-4.47,10.88c-0.92,2.36-1.79,4.73-2.63,7.12c-2.1,5.91-3.98,11.91-5.66,18c-1.64,5.92-3.08,11.93-4.3,18
		c-1.21,5.93-2.22,11.93-3.03,18c-0.79,5.94-1.39,11.94-1.78,18c-0.33,4.91-0.52,9.86-0.58,14.84c-0.02,1.75-1.43,3.16-3.18,3.16
		H264.2c-1.77,0-3.21-1.44-3.19-3.21c0.04-4.95,0.19-9.88,0.43-14.79c0.3-6.04,0.75-12.04,1.34-18c0.6-6.04,1.35-12.04,2.25-18
		c0.91-6.05,1.97-12.05,3.17-18c1.23-6.06,2.61-12.06,4.14-18c1.57-6.07,3.28-12.07,5.15-18c0.49-1.57,0.99-3.13,1.51-4.69
		c1.47-4.48,3.03-8.91,4.68-13.31c2.26-6.08,4.69-12.08,7.28-18c1.93-4.41,3.94-8.78,6.04-13.09c0.8-1.64,1.61-3.28,2.43-4.91
		c3.07-6.1,6.32-12.1,9.74-18c1.89-3.28,3.83-6.52,5.83-9.72c1.73-2.79,3.49-5.55,5.3-8.28c4.04-6.13,8.27-12.13,12.68-18H333v-0.02
		c4.62-6.15,9.43-12.15,14.42-17.98c1.18-1.38,2.37-2.76,3.58-4.12c4.18-4.74,8.49-9.37,12.91-13.88c1.68-1.71,3.38-3.41,5.09-5.09
		c4.51-4.42,9.14-8.73,13.88-12.91c1.36-1.21,2.74-2.4,4.12-3.58c5.83-4.99,11.83-9.8,17.98-14.42H405v-0.02
		c5.87-4.41,11.87-8.64,18-12.68c2.73-1.81,5.49-3.57,8.28-5.3c3.2-2,6.44-3.94,9.72-5.83c5.9-3.42,11.9-6.67,18-9.74
		c1.63-0.82,3.27-1.63,4.91-2.43c4.31-2.1,8.68-4.11,13.09-6.04c5.92-2.59,11.92-5.02,18-7.28c4.4-1.65,8.83-3.21,13.31-4.68
		c1.56-0.52,3.12-1.02,4.69-1.51c5.93-1.87,11.93-3.58,18-5.15c5.94-1.53,11.94-2.91,18-4.14c5.95-1.2,11.95-2.26,18-3.17
		c5.96-0.9,11.96-1.65,18-2.25c3.9-0.39,7.81-0.71,11.74-0.97C600.13,81.14,603,83.82,603,87.22z"/>
	<path class="st1" d="M603,191.91v245.78c0,1.48-1.2,2.69-2.69,2.69h-84.62c-1.48,0-2.69-1.2-2.69-2.69v-84.62
		c0-1.48-1.2-2.69-2.69-2.69H405v-0.15c-0.03,0.05-0.05,0.1-0.06,0.15h-15.45c-1.91,0-3.21-1.93-2.49-3.7l0,0
		c1.93-4.85,4.02-9.62,6.26-14.3c2.91-6.14,6.06-12.15,9.45-18c0.75-1.3,1.51-2.59,2.29-3.87c2.9-4.82,5.96-9.53,9.17-14.13
		c2.83-4.06,5.77-8.03,8.83-11.9c1.62-2.06,3.28-4.09,4.96-6.1c4.16-4.95,8.51-9.74,13.04-14.36c0.94-0.97,1.89-1.92,2.85-2.87
		c0.5-0.5,1.18-0.77,1.89-0.77h64.57c1.48,0,2.69-1.2,2.69-2.69v-43.34c0-1.04,0.6-2,1.54-2.44c4.18-1.96,8.44-3.81,12.76-5.53
		c1.23-0.5,2.46-0.98,3.7-1.45c5.9-2.26,11.9-4.3,18-6.11c5.91-1.77,11.92-3.31,18-4.64c5.93-1.3,11.93-2.38,18-3.25
		c4.98-0.71,10.02-1.28,15.1-1.7C601.66,189.09,603,190.34,603,191.91z"/>
	<path class="st1" d="M945,350.56v90H667.72c-15.86,0-28.72-12.86-28.72-28.72V81c6.04,0.3,12.04,0.75,18,1.34
		c6.04,0.6,12.04,1.35,18,2.25c6.05,0.91,12.05,1.97,18,3.17c6.06,1.23,12.06,2.61,18,4.14c6.07,1.57,12.07,3.28,18,5.15v237.14
		c0,9.04,7.33,16.37,16.37,16.37H945z"/>
</g>
<g id="Capa_2" class="st0">
	<path class="st1" d="M879.65,235.47c-12.81-2.26-17.51-3.05-19.23-3.31c0,0-3.41-0.52-6.28-1.08c-0.02,0-0.19-0.04-0.42-0.08
		c-0.81-0.16-1.42-0.27-1.49-0.28c-1.58-0.28-2.62-0.47-3.89-0.26c-0.88,0.15-1.54,0.43-1.88,0.58c-0.49,0.22-0.67,0.35-2.2,1.3
		c-0.69,0.43-1.38,0.85-2.06,1.28c-0.97,0.6-1.55,0.96-1.85,1.15c-5.78,3.59-12.7,7.96-12.7,7.96c-4.41,2.94-11.5,7.45-23.46,14.59
		c-2.11,1.26-4.85,0.26-5.66-2.06c-1.25-3.56-2.45-6.57-3.47-8.99c-2.62-6.19-5.11-10.88-7.75-15.9c-1.56-2.96-3.18-5.89-4.85-8.79
		c-1.79-3.11-3.65-6.18-5.57-9.21c-3.89-6.17-8.04-12.18-12.41-18c0-0.01-0.01-0.01-0.02-0.02c-4.66-6.21-9.58-12.2-14.76-17.98
		c-1.06-1.2-2.15-2.39-3.24-3.57c-4.63-4.99-9.44-9.8-14.43-14.43c-1.18-1.09-2.37-2.18-3.57-3.24
		c-5.78-5.18-11.77-10.1-17.98-14.76c-0.01-0.01-0.01-0.02-0.02-0.02c-5.82-4.37-11.83-8.52-18-12.41c-3.03-1.92-6.1-3.78-9.21-5.57
		c-1.64-0.95-3.29-1.87-4.95-2.79c-2.37-1.3-3.84-3.79-3.84-6.49V29.91c0-5.28,5.36-8.86,10.25-6.86c2.6,1.06,5.18,2.16,7.75,3.28
		c4.41,1.93,8.78,3.94,13.09,6.04c1.64,0.8,3.28,1.61,4.91,2.43c6.1,3.07,12.1,6.32,18,9.74c3.28,1.89,6.52,3.83,9.72,5.83
		c2.79,1.73,5.55,3.49,8.28,5.3c6.13,4.04,12.13,8.27,18,12.68v0.02h0.02c6.15,4.62,12.15,9.43,17.98,14.42
		c1.38,1.18,2.76,2.37,4.12,3.58c4.74,4.18,9.37,8.49,13.88,12.91c1.71,1.68,3.41,3.38,5.09,5.09c4.42,4.51,8.73,9.14,12.91,13.88
		c1.21,1.36,2.4,2.74,3.58,4.12c4.99,5.83,9.8,11.83,14.42,17.98v0.02h0.02c4.41,5.87,8.64,11.87,12.68,18
		c1.81,2.73,3.57,5.49,5.3,8.28c2,3.2,3.94,6.44,5.83,9.72c3.42,5.9,6.67,11.9,9.74,18c0.82,1.63,1.63,3.27,2.43,4.91
		c2.1,4.31,4.11,8.68,6.04,13.09c3.73,8.51,3.82,10.22,7.28,18c0,0.01,0.01,0.02,0.01,0.03c1.26,2.83-1.15,5.93-4.2,5.4
		C880.97,235.7,880.32,235.58,879.65,235.47z"/>
	<path class="st1" d="M530.63,3.02v78.52c0,3.04-2.33,5.57-5.36,5.83c-4.24,0.36-8.46,0.82-12.64,1.38
		c-6.07,0.81-12.07,1.82-18,3.03c-6.07,1.22-12.08,2.66-18,4.3c-6.09,1.68-12.09,3.56-18,5.66c-2.39,0.84-4.76,1.71-7.12,2.63
		c-3.67,1.41-7.29,2.9-10.88,4.47c-6.12,2.67-12.12,5.56-18,8.68c-2.96,1.56-5.89,3.18-8.79,4.85c-3.11,1.79-6.18,3.65-9.21,5.57
		c-6.17,3.89-12.18,8.04-18,12.41c-0.01,0-0.01,0.01-0.02,0.02c-6.21,4.66-12.2,9.58-17.98,14.76c-1.2,1.06-2.39,2.15-3.57,3.24
		c-4.99,4.63-9.8,9.44-14.43,14.43c-1.09,1.18-2.18,2.37-3.24,3.57c-5.18,5.78-10.1,11.77-14.76,17.98
		c-0.01,0.01-0.02,0.01-0.02,0.02c-4.37,5.82-8.52,11.83-12.41,18c-1.92,3.03-3.78,6.1-5.57,9.21c-1.67,2.9-3.29,5.83-4.85,8.79
		c-3.12,5.88-6.01,11.88-8.68,18c-1.57,3.59-3.06,7.21-4.47,10.88c-0.92,2.36-1.79,4.73-2.63,7.12c-2.1,5.91-3.98,11.91-5.66,18
		c-1.64,5.92-3.08,11.93-4.3,18c-1.21,5.93-2.22,11.93-3.03,18c-0.79,5.94-1.39,11.94-1.78,18c-0.33,4.91-0.52,9.86-0.58,14.84
		c-0.02,1.75-1.43,3.16-3.18,3.16h-83.64c-1.77,0-3.21-1.44-3.19-3.21c0.04-4.95,0.19-9.88,0.43-14.79c0.3-6.04,0.75-12.04,1.34-18
		c0.6-6.04,1.35-12.04,2.25-18c0.91-6.05,1.97-12.05,3.17-18c1.23-6.06,2.61-12.06,4.14-18c1.57-6.07,3.28-12.07,5.15-18
		c0.49-1.57,0.99-3.13,1.51-4.69c1.47-4.48,3.03-8.91,4.68-13.31c2.26-6.08,4.69-12.08,7.28-18c1.93-4.41,3.94-8.78,6.04-13.09
		c0.8-1.64,1.61-3.28,2.43-4.91c3.07-6.1,6.32-12.1,9.74-18c1.89-3.28,3.83-6.52,5.83-9.72c1.73-2.79,3.49-5.55,5.3-8.28
		c4.04-6.13,8.27-12.13,12.68-18h0.02v-0.02c4.62-6.15,9.43-12.15,14.42-17.98c1.18-1.38,2.37-2.76,3.58-4.12
		c4.18-4.74,8.49-9.37,12.91-13.88c1.68-1.71,3.38-3.41,5.09-5.09c4.51-4.42,9.14-8.73,13.88-12.91c1.36-1.21,2.74-2.4,4.12-3.58
		c5.83-4.99,11.83-9.8,17.98-14.42h0.02v-0.02c5.87-4.41,11.87-8.64,18-12.68c2.73-1.81,5.49-3.57,8.28-5.3
		c3.2-2,6.44-3.94,9.72-5.83c5.9-3.42,11.9-6.67,18-9.74c1.63-0.82,3.27-1.63,4.91-2.43c4.31-2.1,8.68-4.11,13.09-6.04
		c5.92-2.59,11.92-5.02,18-7.28c4.4-1.65,8.83-3.21,13.31-4.68c1.56-0.52,3.12-1.02,4.69-1.51c5.93-1.87,11.93-3.58,18-5.15
		c5.94-1.53,11.94-2.91,18-4.14c5.95-1.2,11.95-2.26,18-3.17c5.96-0.9,11.96-1.65,18-2.25c3.9-0.39,7.81-0.71,11.74-0.97
		C527.76-3.05,530.63-0.37,530.63,3.02z"/>
	<path class="st1" d="M530.63,107.71v245.78c0,1.48-1.2,2.69-2.69,2.69h-84.62c-1.48,0-2.69-1.2-2.69-2.69v-84.62
		c0-1.48-1.2-2.69-2.69-2.69H332.63v-0.15c-0.03,0.05-0.05,0.1-0.06,0.15h-15.45c-1.91,0-3.21-1.93-2.49-3.7l0,0
		c1.93-4.85,4.02-9.62,6.26-14.3c2.91-6.14,6.06-12.15,9.45-18c0.75-1.3,1.51-2.59,2.29-3.87c2.9-4.82,5.96-9.53,9.17-14.13
		c2.83-4.06,5.77-8.03,8.83-11.9c1.62-2.06,3.28-4.09,4.96-6.1c4.16-4.95,8.51-9.74,13.04-14.36c0.94-0.97,1.89-1.92,2.85-2.87
		c0.5-0.5,1.18-0.77,1.89-0.77h64.57c1.48,0,2.69-1.2,2.69-2.69v-43.34c0-1.04,0.6-2,1.54-2.44c4.18-1.96,8.44-3.81,12.76-5.53
		c1.23-0.5,2.46-0.98,3.7-1.45c5.9-2.26,11.9-4.3,18-6.11c5.91-1.77,11.92-3.31,18-4.64c5.93-1.3,11.93-2.38,18-3.25
		c4.98-0.71,10.02-1.28,15.1-1.7C529.3,104.9,530.63,106.15,530.63,107.71z"/>
	<path class="st1" d="M809.65,275.37v81H595.35c-15.86,0-28.72-12.86-28.72-28.72V-3.19c6.04,0.3,12.04,0.75,18,1.34
		c6.04,0.6,12.04,1.35,18,2.25c6.05,0.91,12.05,1.97,18,3.17c6.06,1.23,12.06,2.61,18,4.14c6.07,1.57,12.07,3.28,18,5.15V250
		c0,9.04,7.33,16.37,16.37,16.37L809.65,275.37z"/>
	<path class="st1" d="M809.65,275.37l43.22-25.93c1.15-0.69,2.5-0.95,3.82-0.73l44.44,7.41c3.73,0.62,5.8,4.68,4.11,8.07l-2.62,5.24
		c-1.56,3.11,0.05,6.87,3.38,7.9l95.76,29.46c5.03,1.55,5.37,8.55,0.51,10.57l-92.58,38.57c-0.69,0.29-1.42,0.43-2.16,0.43h-97.87"
		/>
	<path class="st1" d="M791.65,239.37"/>
	<path class="st1" d="M936.71,268.56l91.54,30.08c1.43,0.47,2.98,0.4,4.35-0.2l32.52-14.17c2.77-1.21,4.24-4.25,3.47-7.17
		l-2.64-10.01c-0.68-2.58-2.95-4.42-5.62-4.55l-121.43-5.91c-2.76-0.13-5.27,1.6-6.12,4.24l0,0
		C931.77,264.08,933.52,267.51,936.71,268.56z"/>
</g>
<g id="Capa_3">
	<path class="st2" d="M702,143.89v0.12c-0.07-0.04-0.14-0.08-0.21-0.12H702z"/>
	<path class="st3" d="M906.91,259.04l-6.91-1.15l-7.04-1.17l-6.46-1.08c-0.03-0.08-0.06-0.15-0.09-0.23l-0.28,0.17l-4.13-0.69
		l-16.29-2.72l-1.71-0.28l-7.97-1.33l-2.15,1.33l-6.24,3.84l-1.64,1.01l-12.98,7.99l-0.88,0.54l-4.14,2.54l-3.37,2.08l-8,4.92
		c-0.68-1.65-1.38-3.29-2.1-4.92c-1.31-3-2.68-5.98-4.09-8.93l-0.39-0.06l-0.05-0.01v-0.84c-1.34-2.75-2.72-5.47-4.15-8.16
		c-1.91-3.61-3.89-7.18-5.96-10.69c-1.45-2.46-2.94-4.9-4.46-7.31c-1.12-1.78-2.26-3.54-3.43-5.29c-2.87-4.33-5.86-8.56-8.98-12.71
		c-2.9-3.87-5.91-7.66-9.02-11.36c-1.88-2.25-3.8-4.46-5.76-6.64c-3.93-4.41-8.02-8.68-12.24-12.82c-1.79-1.75-3.6-3.48-5.43-5.18
		c-4.07-3.78-8.27-7.43-12.57-10.96c-2.94-2.41-5.94-4.76-8.98-7.04c-2.96-2.23-5.96-4.39-9.02-6.49c-5.84-4.03-11.84-7.83-18-11.39
		v-0.12h-0.21c-5.8-3.35-11.73-6.48-17.78-9.4c-0.01-0.12-0.01-0.25-0.01-0.37V37.34c6.08,2.08,12.08,4.32,18,6.73
		c6.09,2.45,12.09,5.08,18,7.86c1.37,0.64,2.73,1.29,4.09,1.96c4.7,2.28,9.33,4.65,13.91,7.13c6.11,3.3,12.11,6.78,18,10.43v0.44
		h0.72c5.88,3.64,11.64,7.46,17.28,11.44c3.04,2.13,6.05,4.32,9.02,6.56c3.03,2.27,6.02,4.59,8.98,6.97
		c4.46,3.56,8.83,7.24,13.11,11.03c1.64,1.44,3.27,2.9,4.89,4.39c4.82,4.4,9.52,8.95,14.09,13.61c1.32,1.34,2.62,2.69,3.91,4.05
		c4.31,4.54,8.51,9.19,12.57,13.95c1.85,2.14,3.66,4.31,5.43,6.49c3.09,3.77,6.1,7.61,9.02,11.51c3.08,4.1,6.08,8.27,8.98,12.5
		c1.25,1.82,2.49,3.65,3.7,5.5c3.88,5.88,7.6,11.88,11.13,18c1.08,1.85,2.13,3.71,3.17,5.59c2.27,4.09,4.46,8.22,6.57,12.41
		c1.89,3.73,3.71,7.5,5.45,11.3c1.04,2.22,2.04,4.45,3.02,6.7c1.01,2.31,2,4.64,2.96,6.98c0.68,1.64,1.35,3.29,2,4.94
		c0.79,2.02,1.57,4.04,2.32,6.08c0.53,1.42,1.06,2.84,1.57,4.27C906.24,257.12,906.58,258.08,906.91,259.04z"/>
	<path class="st2" d="M886.5,255.64l-0.37-0.06l0.28-0.17C886.44,255.49,886.47,255.56,886.5,255.64z"/>
	<path class="st4" d="M864,269.83v0.06l-0.15-0.03C863.9,269.85,863.95,269.84,864,269.83z"/>
	<path class="st4" d="M580.44,0.25c-0.74-0.03-1.48-0.05-2.22-0.08c-0.74-0.02-1.48-0.04-2.22-0.06V0c1.37,0.06,2.73,0.15,4.1,0.23
		C580.21,0.24,580.33,0.24,580.44,0.25z"/>
	<path class="st4" d="M666.18,273.5c-0.06-0.06-0.12-0.12-0.18-0.17v-2.25C666,271.9,666.06,272.71,666.18,273.5z"/>
	<path class="st5" d="M819,260.15L819,260.15z"/>
	<path class="st2" d="M306.71,305.89c-0.25,0.87-0.48,1.75-0.71,2.62v-2.62H306.71z"/>
	<path class="st4" d="M837.1,296.45L837.1,296.45z"/>
	<line class="st6" x1="432" y1="197.89" x2="432" y2="197.57"/>
	<line class="st6" x1="450" y1="197.89" x2="450" y2="197.57"/>
	<line class="st6" x1="558" y1="0.11" x2="558" y2="0"/>
	<path class="st7" d="M558,126.05v251.84h-90v-90H331.55c2.33-6.12,4.91-12.12,7.71-18c0.88-1.88,1.8-3.75,2.74-5.6
		c2.12-4.21,4.36-8.34,6.71-12.4c3.52-6.09,7.29-12.01,11.29-17.76c0.06-0.08,0.11-0.16,0.17-0.24c4.33-6.21,8.93-12.22,13.79-18
		c1.33-1.58,2.68-3.14,4.04-4.69c4.05-4.59,8.27-9.03,12.64-13.31H468v-51.81c1.75-0.75,3.52-1.48,5.3-2.19
		c1.68-0.68,3.38-1.34,5.08-1.97c2.52-0.95,5.06-1.86,7.62-2.73c5.91-2.01,11.91-3.79,18-5.36c5.92-1.53,11.92-2.84,18-3.93
		c5.93-1.07,11.93-1.93,18-2.58C545.94,126.69,551.94,126.26,558,126.05z"/>
	<line class="st6" x1="576" y1="0.11" x2="576" y2="0"/>
	<line class="st6" x1="594" y1="1" x2="594" y2="0"/>
	<line class="st6" x1="612" y1="2.79" x2="612" y2="0"/>
	<line class="st6" x1="630" y1="5.5" x2="630" y2="0"/>
	<line class="st6" x1="684" y1="288.95" x2="684" y2="287.89"/>
	<line class="st6" x1="702" y1="288.74" x2="702" y2="288.31"/>
	<line class="st6" x1="720" y1="161.89" x2="720" y2="161.38"/>
	<line class="st6" x1="738" y1="377.89" x2="738" y2="377.45"/>
	<line class="st6" x1="756" y1="293.18" x2="756" y2="292.3"/>
	<line class="st6" x1="756" y1="377.89" x2="756" y2="377.45"/>
	<line class="st6" x1="774" y1="294.24" x2="774" y2="293.49"/>
	<line class="st6" x1="774" y1="377.89" x2="774" y2="377.45"/>
	<line class="st6" x1="792" y1="295.3" x2="792" y2="294.67"/>
	<line class="st6" x1="792" y1="377.89" x2="792" y2="377.45"/>
	<line class="st6" x1="810" y1="278.89" x2="810" y2="278.46"/>
	<line class="st6" x1="810" y1="377.89" x2="810" y2="377.45"/>
	<line class="st6" x1="828" y1="377.89" x2="828" y2="377.45"/>
	<line class="st6" x1="828" y1="269.89" x2="828" y2="269.65"/>
	<line class="st6" x1="846" y1="377.89" x2="846" y2="377.45"/>
	<line class="st6" x1="846" y1="258.22" x2="846" y2="256.74"/>
	<line class="st6" x1="864" y1="269.83" x2="864" y2="269.2"/>
	<line class="st6" x1="864" y1="377.89" x2="864" y2="377.45"/>
	<line class="st6" x1="864" y1="252.16" x2="864" y2="251.89"/>
	<line class="st6" x1="864" y1="251.89" x2="862.56" y2="251.89"/>
	<line class="st6" x1="702" y1="287.89" x2="701.72" y2="287.89"/>
	<line class="st6" x1="689.05" y1="287.89" x2="684" y2="287.89"/>
	<line class="st6" x1="218.34" y1="270" x2="216" y2="270"/>
	<line class="st6" x1="306" y1="323.89" x2="302.41" y2="323.89"/>
	<polyline class="st6" points="864,359.89 872.47,359.89 882,359.89 890.5,359.89 900,359.89 908.53,359.89 918,359.89 
		926.55,359.89 936,359.89 	"/>
	<line class="st6" x1="306.55" y1="359.89" x2="306" y2="359.89"/>
	<line class="st6" x1="1143" y1="306" x2="1143" y2="305.1"/>
	<path class="st3" d="M558,18v17.89h-0.01v66.43c0,2.59-1.7,4.82-4.08,5.57c-0.41,0.13-0.84,0.22-1.28,0.26
		c-1.15,0.1-2.29,0.2-3.43,0.32h-0.07c-0.04,0.01-0.07,0.01-0.11,0.01c-3.02,0.3-6.03,0.65-9.02,1.05v-0.31
		c-6.06,0.6-12.07,1.41-18,2.4c-6.07,1.02-12.07,2.24-18,3.66c-6.08,1.45-12.09,3.11-18,4.97c-5.45,1.71-10.83,3.59-16.12,5.64
		c-0.63,0.24-1.26,0.48-1.88,0.73c-6.11,2.41-12.11,5.03-18,7.86c-6.06,2.92-11.99,6.06-17.79,9.41c-0.07,0.04-0.14,0.08-0.21,0.12
		c-6.16,3.56-12.16,7.36-18,11.39c-3.06,2.1-6.06,4.26-9.02,6.49c-3.04,2.28-6.04,4.63-8.98,7.04c-4.3,3.53-8.5,7.18-12.57,10.96
		c-0.26,0.24-0.52,0.48-0.77,0.73h-0.01c-1.57,1.46-3.12,2.95-4.65,4.45c-4.22,4.14-8.31,8.41-12.24,12.82
		c-1.96,2.18-3.88,4.39-5.76,6.64c-3.11,3.7-6.12,7.49-9.02,11.36c-3.12,4.15-6.11,8.38-8.98,12.71c-1.17,1.75-2.31,3.51-3.43,5.29
		c-3.7,5.85-7.18,11.86-10.42,18c-1.43,2.69-2.81,5.41-4.15,8.16c-1.57,3.25-3.09,6.53-4.53,9.84c-2.58,5.9-4.95,11.9-7.1,18
		c-2.1,5.91-3.98,11.91-5.66,18H306v2.62c-1.35,5.07-2.55,10.2-3.59,15.38c-1.21,5.93-2.22,11.93-3.03,18
		c-0.79,5.94-1.39,11.94-1.78,18c-0.39,5.71-0.58,11.46-0.6,17.26v0.74h-90c0-27.61,3.11-54.49,9-80.32
		c0.73-3.24,1.52-6.47,2.34-9.68c1.56-6.06,3.28-12.07,5.15-18c1.9-6.07,3.96-12.08,6.19-18c1.37-3.71,2.81-7.38,4.32-11.02
		c0.96-2.34,1.95-4.67,2.96-6.98c2.66-6.09,5.48-12.09,8.47-18c2.11-4.19,4.3-8.32,6.57-12.41c1.04-1.88,2.09-3.74,3.17-5.59
		c3.53-6.12,7.25-12.12,11.13-18c1.21-1.85,2.45-3.68,3.7-5.5c2.9-4.23,5.9-8.4,8.98-12.5c2.92-3.9,5.93-7.74,9.02-11.51
		c1.77-2.18,3.58-4.35,5.43-6.49c4.06-4.76,8.26-9.41,12.57-13.95c1.29-1.36,2.59-2.71,3.91-4.05c4.57-4.66,9.27-9.21,14.09-13.61
		c1.62-1.49,3.25-2.95,4.89-4.39c4.28-3.79,8.65-7.47,13.11-11.03c2.96-2.38,5.95-4.7,8.98-6.97c2.97-2.24,5.98-4.43,9.02-6.56
		c5.64-3.98,11.4-7.8,17.28-11.44H378v-0.44c5.89-3.65,11.89-7.13,18-10.43c4.58-2.48,9.21-4.85,13.91-7.13
		c1.36-0.67,2.72-1.32,4.09-1.96c5.91-2.78,11.91-5.41,18-7.86c5.92-2.41,11.92-4.65,18-6.73c1.43-0.5,2.87-0.98,4.31-1.45
		c4.52-1.5,9.08-2.9,13.69-4.21c5.94-1.7,11.94-3.25,18-4.64c5.95-1.37,11.95-2.59,18-3.65c5.95-1.06,11.95-1.96,18-2.71
		c5.96-0.75,11.96-1.34,18-1.79c0.48-0.04,0.95-0.07,1.43-0.1h0.03c4.02-0.29,8.06-0.51,12.11-0.66c0.01,0,0.01,0,0.02,0
		C555.06,18.08,556.53,18.04,558,18z"/>
	<line class="st6" x1="810.4" y1="278.64" x2="810" y2="278.89"/>
	<polyline class="st6" points="918,377.89 926.97,373.85 931.06,372.01 	"/>
	<path class="st7" d="M1017,332.89l-1.93,0.88l-70.27,31.94l-15.19,6.9l-2.64,1.1l-7.92,3.3c-0.34,0.14-0.69,0.25-1.05,0.33
		c-0.37,0.07-0.74,0.11-1.11,0.11H720v0.44H576V18c1.48,0.04,2.96,0.08,4.44,0.14h0.08c4.51,0.17,9.01,0.42,13.48,0.75
		c6.04,0.45,12.04,1.04,18,1.79c6.05,0.75,12.05,1.65,18,2.71c6.05,1.06,12.05,2.28,18,3.65c6.06,1.39,12.06,2.94,18,4.64v256.21
		l14.05,0.83l3.95,0.23l18,1.06l1.16,0.07l16.84,0.99l4.86,0.28l13.14,0.78l7.73,0.45l10.27,0.6l9.99,0.59l8.01,0.47l11.87,0.7
		l3.68,0.22l2.45,0.14l13.38,0.79h0.04l4.58,0.27v-0.5l9.01,0.59l4.6-2.76l4.39-2.64l5.27-3.16l6.14-3.68v-0.01l6.59-3.95l1.55-0.93
		l7.62-4.57v-0.01l7.06-4.23c0.47-0.28,0.97-0.48,1.49-0.62c0.04-0.01,0.08-0.02,0.12-0.03h0.01l0.15,0.03l9.09,1.51l8.91,1.49
		l11.17,1.86l6.83,1.14l12.56,2.09h0.01l0.39,0.07l5.04,0.84l-9,18l29.28,9.76l76.72,25.57L1017,332.89z"/>
	<polygon class="st3" points="1098,296.89 1095.94,297.82 1080,304.99 1078,305.89 1062,313.09 1051.17,317.96 1047.07,319.81 
		1044,318.68 1026,312.05 1009.29,305.89 1008,305.42 990,298.78 972,292.15 972,291.95 966.79,290.23 966.69,290.2 962.86,288.79 
		962.85,288.78 960.43,287.89 954,285.52 936,278.89 1089,278.89 	"/>
	<line class="st6" x1="819" y1="296.89" x2="810" y2="296.36"/>
	<path class="st6" d="M580.44,0.25c-0.74-0.03-1.48-0.05-2.22-0.08c0.63,0.01,1.25,0.03,1.88,0.06
		C580.21,0.24,580.33,0.24,580.44,0.25z"/>
	<path class="st6" d="M798.73,278.83L684,270V154.75C735.11,181.59,775.87,225.46,798.73,278.83z"/>
	<path class="st6" d="M906.91,259.04l-6.91-1.15l-7.04-1.17l-6.46-1.08l-0.37-0.06l-4.13-0.69l-16.29-2.72l-1.71-0.28l-7.97-1.33
		l-2.15,1.33l-6.24,3.84l-1.64,1.01l-12.98,7.99l-0.88,0.54l-4.14,2.54l-3.37,2.08l-8,4.92c-0.68-1.65-1.38-3.29-2.1-4.92
		c-1.31-3-2.68-5.98-4.09-8.93l-0.39-0.06l-0.05-0.01v-0.84c-1.34-2.75-2.72-5.47-4.15-8.16c-1.91-3.61-3.89-7.18-5.96-10.69
		c-1.45-2.46-2.94-4.9-4.46-7.31c-1.12-1.78-2.26-3.54-3.43-5.29c-2.87-4.33-5.86-8.56-8.98-12.71c-2.9-3.87-5.91-7.66-9.02-11.36
		c-1.88-2.25-3.8-4.46-5.76-6.64c-3.93-4.41-8.02-8.68-12.24-12.82c-1.79-1.75-3.6-3.48-5.43-5.18c-4.07-3.78-8.27-7.43-12.57-10.96
		c-2.94-2.41-5.94-4.76-8.98-7.04c-2.96-2.23-5.96-4.39-9.02-6.49c-5.84-4.03-11.84-7.83-18-11.39c-0.07-0.04-0.14-0.08-0.21-0.12
		c-5.8-3.35-11.73-6.48-17.78-9.4c-0.01-0.12-0.01-0.25-0.01-0.37V37.34c6.08,2.08,12.08,4.32,18,6.73c6.09,2.45,12.09,5.08,18,7.86
		c1.37,0.64,2.73,1.29,4.09,1.96c4.7,2.28,9.33,4.65,13.91,7.13c6.11,3.3,12.11,6.78,18,10.43v0.44h0.72
		c5.88,3.64,11.64,7.46,17.28,11.44c3.04,2.13,6.05,4.32,9.02,6.56c3.03,2.27,6.02,4.59,8.98,6.97c4.46,3.56,8.83,7.24,13.11,11.03
		c1.64,1.44,3.27,2.9,4.89,4.39c4.82,4.4,9.52,8.95,14.09,13.61c1.32,1.34,2.62,2.69,3.91,4.05c4.31,4.54,8.51,9.19,12.57,13.95
		c1.85,2.14,3.66,4.31,5.43,6.49c3.09,3.77,6.1,7.61,9.02,11.51c3.08,4.1,6.08,8.27,8.98,12.5c1.25,1.82,2.49,3.65,3.7,5.5
		c3.88,5.88,7.6,11.88,11.13,18c1.08,1.85,2.13,3.71,3.17,5.59c2.27,4.09,4.46,8.22,6.57,12.41c1.89,3.73,3.71,7.5,5.45,11.3
		c1.04,2.22,2.04,4.45,3.02,6.7c1.01,2.31,2,4.64,2.96,6.98c0.68,1.64,1.35,3.29,2,4.94c0.79,2.02,1.57,4.04,2.32,6.08
		c0.53,1.42,1.06,2.84,1.57,4.27C906.24,257.12,906.58,258.08,906.91,259.04z"/>
	<path class="st6" d="M944.8,365.71l-15.19,6.9L918,377.89H576V18c1.48,0.04,2.96,0.08,4.44,0.14h0.08
		c4.51,0.17,9.01,0.42,13.48,0.75c6.04,0.45,12.04,1.04,18,1.79c6.05,0.75,12.05,1.65,18,2.71c6.05,1.06,12.05,2.28,18,3.65
		c6.06,1.39,12.06,2.94,18,4.64v239.4c0,0.82,0.06,1.63,0.18,2.42c-0.06-0.06-0.12-0.12-0.18-0.17v14.56l14.05,0.83l3.95,0.23
		l18,1.06l1.16,0.07l16.84,0.99l4.86,0.28l13.14,0.78l7.73,0.45l10.27,0.6l9.99,0.59l8.01,0.47l11.87,0.7l3.68,0.22l2.45,0.14
		l13.38,0.79h0.04l4.58,0.27v-0.5l9.01,0.59l4.6-2.76l4.39-2.64l5.27-3.16l6.14-3.68v-0.01l6.59-3.95l1.55-0.93l7.62-4.57v-0.01
		l7.06-4.23c0.47-0.28,0.97-0.48,1.49-0.62c0.04-0.01,0.08-0.02,0.12-0.03h0.01c0.05-0.01,0.1-0.02,0.15-0.03v0.06l9.09,1.51
		l8.91,1.49l11.17,1.86l6.83,1.14l12.56,2.09h0.01l0.39,0.07l5.04,0.84l-9,18l29.28,9.76C941.95,325.86,944.16,345.59,944.8,365.71z
		"/>
	<path class="st6" d="M558,18v17.89h-0.01v66.43c0,2.59-1.7,4.82-4.08,5.57c-0.41,0.13-0.84,0.22-1.28,0.26
		c-1.15,0.1-2.29,0.2-3.43,0.32h-0.07c-0.04,0.01-0.07,0.01-0.11,0.01c-3.02,0.3-6.03,0.65-9.02,1.05v-0.31
		c-6.06,0.6-12.07,1.41-18,2.4c-6.07,1.02-12.07,2.24-18,3.66c-6.08,1.45-12.09,3.11-18,4.97c-5.45,1.71-10.83,3.59-16.12,5.64
		c-0.63,0.24-1.26,0.48-1.88,0.73c-6.11,2.41-12.11,5.03-18,7.86c-6.06,2.92-11.99,6.06-17.79,9.41c-0.07,0.04-0.14,0.08-0.21,0.12
		c-6.16,3.56-12.16,7.36-18,11.39c-3.06,2.1-6.06,4.26-9.02,6.49c-3.04,2.28-6.04,4.63-8.98,7.04c-4.3,3.53-8.5,7.18-12.57,10.96
		c-0.26,0.24-0.52,0.48-0.77,0.73h-0.01c-1.57,1.46-3.12,2.95-4.65,4.45c-4.22,4.14-8.31,8.41-12.24,12.82
		c-1.96,2.18-3.88,4.39-5.76,6.64c-3.11,3.7-6.12,7.49-9.02,11.36c-3.12,4.15-6.11,8.38-8.98,12.71c-1.17,1.75-2.31,3.51-3.43,5.29
		c-3.7,5.85-7.18,11.86-10.42,18c-1.43,2.69-2.81,5.41-4.15,8.16c-1.57,3.25-3.09,6.53-4.53,9.84c-2.58,5.9-4.95,11.9-7.1,18
		c-2.1,5.91-3.98,11.91-5.66,18c-0.25,0.87-0.48,1.75-0.71,2.62c-1.35,5.07-2.55,10.2-3.59,15.38c-1.21,5.93-2.22,11.93-3.03,18
		c-0.79,5.94-1.39,11.94-1.78,18c-0.39,5.71-0.58,11.46-0.6,17.26v0.74h-90c0-27.61,3.11-54.49,9-80.32
		c0.73-3.24,1.52-6.47,2.34-9.68c1.56-6.06,3.28-12.07,5.15-18c1.9-6.07,3.96-12.08,6.19-18c1.37-3.71,2.81-7.38,4.32-11.02
		c0.96-2.34,1.95-4.67,2.96-6.98c2.66-6.09,5.48-12.09,8.47-18c2.11-4.19,4.3-8.32,6.57-12.41c1.04-1.88,2.09-3.74,3.17-5.59
		c3.53-6.12,7.25-12.12,11.13-18c1.21-1.85,2.45-3.68,3.7-5.5c2.9-4.23,5.9-8.4,8.98-12.5c2.92-3.9,5.93-7.74,9.02-11.51
		c1.77-2.18,3.58-4.35,5.43-6.49c4.06-4.76,8.26-9.41,12.57-13.95c1.29-1.36,2.59-2.71,3.91-4.05c4.57-4.66,9.27-9.21,14.09-13.61
		c1.62-1.49,3.25-2.95,4.89-4.39c4.28-3.79,8.65-7.47,13.11-11.03c2.96-2.38,5.95-4.7,8.98-6.97c2.97-2.24,5.98-4.43,9.02-6.56
		c5.64-3.98,11.4-7.8,17.28-11.44H378v-0.44c5.89-3.65,11.89-7.13,18-10.43c4.58-2.48,9.21-4.85,13.91-7.13
		c1.36-0.67,2.72-1.32,4.09-1.96c5.91-2.78,11.91-5.41,18-7.86c5.92-2.41,11.92-4.65,18-6.73c1.43-0.5,2.87-0.98,4.31-1.45
		c4.52-1.5,9.08-2.9,13.69-4.21c5.94-1.7,11.94-3.25,18-4.64c5.95-1.37,11.95-2.59,18-3.65c5.95-1.06,11.95-1.96,18-2.71
		c5.96-0.75,11.96-1.34,18-1.79c0.48-0.04,0.95-0.07,1.43-0.1h0.03c4.02-0.29,8.06-0.51,12.11-0.66c0.01,0,0.01,0,0.02,0
		C555.06,18.08,556.53,18.04,558,18z"/>
	<path class="st6" d="M450,154.75V180h-38.9C423.21,170.44,436.23,161.98,450,154.75z"/>
	<path class="st6" d="M558,126.05v251.84h-90v-90H331.55c2.33-6.12,4.91-12.12,7.71-18c0.88-1.88,1.8-3.75,2.74-5.6
		c2.12-4.21,4.36-8.34,6.71-12.4c3.52-6.09,7.29-12.01,11.29-17.76v-0.24h0.17c4.33-6.21,8.93-12.22,13.79-18
		c1.33-1.58,2.68-3.14,4.04-4.69c4.05-4.59,8.27-9.03,12.64-13.31H468v-51.81c1.75-0.75,3.52-1.48,5.3-2.19
		c1.68-0.68,3.38-1.34,5.08-1.97c2.52-0.95,5.06-1.86,7.62-2.73c5.91-2.01,11.91-3.79,18-5.36c5.92-1.53,11.92-2.84,18-3.93
		c5.93-1.07,11.93-1.93,18-2.58C545.94,126.69,551.94,126.26,558,126.05z"/>
	<path class="st6" d="M324.73,308.43L324,306h1.44C325.19,306.81,324.96,307.62,324.73,308.43z"/>
	<path class="st6" d="M944.74,392.08C937.34,594.32,771.05,756,567,756c-202.72,0-368.18-159.6-377.57-360h126.2
		C324.86,526.78,433.87,630,567,630s242.14-103.22,251.37-234H936L944.74,392.08z"/>
	<path class="st6" d="M798.73,278.83L684,270V154.75C735.11,181.59,775.87,225.46,798.73,278.83z"/>
	<path class="st6" d="M450,154.75V180h-38.9C423.21,170.44,436.23,161.98,450,154.75z"/>
	<path class="st6" d="M558,126.16v251.73h-90v-90H331.59c13.1-34.21,33.45-64.84,59.16-90H468v-51.7c3.45-1.48,6.95-2.88,10.48-4.2
		C503.35,132.65,530.1,127.14,558,126.16z"/>
	<path class="st6" d="M819,377.45v0.44H576V126.16c4.75,0.16,9.47,0.46,14.14,0.89c26.71,2.43,52.22,9.03,75.86,19.14v124.89
		c0,0.82,0.06,1.63,0.18,2.42c-0.06-0.06-0.12-0.12-0.18-0.17v14.56l14.05,0.83l3.95,0.23l18,1.06l1.16,0.07l16.84,0.99l4.86,0.28
		l13.14,0.78l7.73,0.45l10.27,0.6l9.99,0.59l8.01,0.47l11.87,0.7l3.68,0.22l2.45,0.14l13.38,0.79
		C814.16,321.61,818.94,348.97,819,377.45z"/>
	<path class="st6" d="M189.43,396H171v-18l18-0.06V378C189,384.04,189.14,390.04,189.43,396z"/>
	<path class="st6" d="M382.65,180.62c-1.57,1.46-3.12,2.95-4.65,4.45c-4.22,4.14-8.31,8.41-12.24,12.82
		c-1.96,2.18-3.88,4.39-5.76,6.64c-3.11,3.7-6.12,7.49-9.02,11.36c-3.12,4.15-6.11,8.38-8.98,12.71c-1.17,1.75-2.31,3.51-3.43,5.29
		c-3.7,5.85-7.18,11.86-10.42,18c-1.43,2.69-2.81,5.41-4.15,8.16c-1.57,3.25-3.09,6.53-4.53,9.84c-2.58,5.9-4.95,11.9-7.1,18
		c-2.1,5.91-3.98,11.91-5.66,18c-0.25,0.87-0.48,1.75-0.71,2.62c-1.35,5.07-2.55,10.2-3.59,15.38c-1.21,5.93-2.22,11.93-3.03,18
		c-0.79,5.94-1.39,11.94-1.78,18c-0.39,5.71-0.58,11.46-0.6,17.26v0.74h-90l9-26.89l108-162L382.65,180.62z"/>
	<path class="st6" d="M558,135.82v242.07h-90v-90H331.55c2.33-6.12,4.91-12.12,7.71-18c0.88-1.88,1.8-3.75,2.74-5.6
		c2.12-4.21,4.36-8.34,6.71-12.4c3.52-6.09,7.29-12.01,11.29-17.76v-0.24h0.17c4.33-6.21,8.93-12.22,13.79-18
		c1.33-1.58,2.68-3.14,4.04-4.69c4.05-4.59,8.27-9.03,12.64-13.31H468v-51.81c1.75-0.75,3.52-1.48,5.3-2.19
		c1.68-0.68,3.38-1.34,5.08-1.97l0.1,0.07L495,153L558,135.82z"/>
	<path class="st6" d="M906.91,259.04l-6.91-1.15l-7.04-1.17l-6.46-1.08l-0.37-0.06l-4.13-0.69l-16.29-2.72l-1.71-0.28l-7.97-1.33
		l-2.15,1.33l-6.24,3.84l-1.64,1.01l-12.98,7.99l-0.88,0.54l-4.14,2.54l-3.37,2.08l-8,4.92c-0.68-1.65-1.38-3.29-2.1-4.92
		c-1.31-3-2.68-5.98-4.09-8.93l-0.39-0.06L828,225l77.89,31.16C906.24,257.12,906.58,258.08,906.91,259.04z"/>
	<path class="st6" d="M1017,332.89l-1.93,0.88l-70.27,31.94l-15.19,6.9L918,377.89H576V130.91l14.14-3.86L594,126l54-98.96l18,5.15
		v238.89c0,0.82,0.06,1.63,0.18,2.42c-0.06-0.06-0.12-0.12-0.18-0.17v14.56l14.05,0.83l3.95,0.23l18,1.06l1.16,0.07l16.84,0.99
		l4.86,0.28l13.14,0.78l7.73,0.45l10.27,0.6l9.99,0.59l8.01,0.47l11.87,0.7l3.68,0.22l2.45,0.14l13.38,0.79h0.04l4.58,0.27v-0.5
		l9.01,0.59l4.6-2.76l4.39-2.64l5.27-3.16l6.14-3.68v-0.01l6.59-3.95l1.55-0.93l7.62-4.57v-0.01l7.06-4.23
		c0.47-0.28,0.97-0.48,1.49-0.62c0.04-0.01,0.08-0.02,0.12-0.03h0.01c0.05-0.01,0.1-0.02,0.15-0.03v0.06l9.09,1.51l8.91,1.49
		l11.17,1.86l6.83,1.14l12.56,2.09h0.01l0.39,0.07l5.04,0.84l-9,18l29.28,9.76l76.72,25.57L1017,332.89z"/>
	<polygon class="st6" points="1098,296.89 1095.94,297.82 1080,304.99 1078,305.89 1062,313.09 1051.17,317.96 1047.07,319.81 
		1044,318.68 1026,312.05 1009.29,305.89 1008,305.42 990,298.78 972,292.15 966.79,290.23 966.69,290.2 962.86,288.79 
		962.85,288.78 960.43,287.89 954,285.52 936,278.89 1089,278.89 	"/>
</g>
</svg>
